<svg viewBox="0 0 32 32" xmlns="http://www.w3.org/2000/svg" aria-hidden="true" role="presentation" focusable="false" style="display: block; height: 24px; width: 24px; fill: currentcolor;"><path d="M24 1a5 5 0 0 1 4.995 4.783L29 6v20a5 5 0 0 1-4.783 4.995L24 31H8a5 5 0 0 1-4.995-4.783L3 26V6a5 5 0 0 1 4.783-4.995L8 1zm0 2H8a3 3 0 0 0-2.995 2.824L5 6v20a3 3 0 0 0 2.824 2.995L8 29h16a3 3 0 0 0 2.995-2.824L27 26V6a3 3 0 0 0-2.824-2.995zm-8 10a7 7 0 1 1 0 14 7 7 0 0 1 0-14zm0 2a5 5 0 1 0 0 10 5 5 0 0 0 0-10zm0 2a3 3 0 1 1 0 6 3 3 0 0 1 0-6zm0 2a1 1 0 1 0 0 2 1 1 0 0 0 0-2zm0-14a3 3 0 1 1 0 6 3 3 0 0 1 0-6zm0 2a1 1 0 1 0 0 2 1 1 0 0 0 0-2z"/></svg>